<svg width="100" height="100" viewBox="0 0 100 100" fill="none" xmlns="http://www.w3.org/2000/svg">
<g id="cloudinary" clip-path="url(#clip0_790_7723)">
<path id="Vector" d="M81.0999 40.3C78.9999 33.6 74.6999 27.7 69.0999 23.5C63.3999 19.3 56.5999 17 49.4999 17C43.4999 17 37.6999 18.6 32.4999 21.6C27.3999 24.6 23.1999 29 20.3999 34.3C15.1999 35.2 10.4999 37.8 6.79988 41.6C3.19988 45.4 0.899883 50.3 0.199883 55.5C-0.500117 60.7 0.599883 66 3.09988 70.6C5.69988 75.2 9.59988 78.9 14.3999 81.1L14.9999 81.4V74.4C11.6999 72.4 9.09988 69.4 7.59988 65.8C6.09988 62.2 5.79988 58.3 6.59988 54.6C7.39988 50.8 9.49988 47.4 12.2999 44.9C15.1999 42.3 18.7999 40.7 22.5999 40.3L24.2999 40.1L25.0999 38.5C27.2999 33.9 30.6999 30 34.9999 27.3C39.2999 24.6 44.2999 23.2 49.2999 23.2C55.2999 23.2 61.1999 25.3 65.8999 29.1C70.5999 32.9 73.9999 38.1 75.3999 44L75.9999 46.4H78.4999C82.4999 46.5 86.2999 48.1 89.0999 51C91.8999 53.9 93.4999 57.7 93.4999 61.7C93.4999 67.5 90.0999 72.3 84.3999 74.7V81.4L84.7999 81.3C93.9999 78.3 99.7999 70.8 99.7999 61.7C99.7999 56.5 97.7999 51.4 94.3999 47.5C91.0999 43.5 86.2999 41 81.0999 40.3Z" fill="white"/>
<path id="Vector_2" d="M37.3 80.5999L38.7001 81.9999L38.8 82.0999C38.8 82.1999 38.8 82.1999 38.8 82.2999L38.7001 82.3999H38.6H27.7001C26.4001 82.3999 25.1001 81.8999 24.2001 80.8999C23.3001 79.9999 22.7001 78.6999 22.7001 77.3999V56.3999C22.7001 56.2999 22.7 56.2999 22.6 56.1999C22.5001 56.0999 22.5 56.0999 22.4 56.0999H20.1C20 56.0999 20 56.0999 19.9 56.0999L19.8 55.9999C19.8 55.9999 19.8 55.8999 19.8 55.7999C19.8 55.6999 19.8 55.6999 19.9 55.6999L29.1 46.4999C29.1 46.4999 29.2001 46.4999 29.2001 46.3999C29.2001 46.2999 29.3 46.3999 29.3 46.3999H29.4C29.4 46.3999 29.5 46.3999 29.5 46.4999L38.7001 55.6999L38.8 55.7999C38.8 55.7999 38.8 55.8999 38.8 55.9999L38.7001 56.0999H38.6H36.2001C36.1 56.0999 36.1 56.0999 36 56.1999C35.9 56.2999 35.9001 56.2999 35.9001 56.3999V77.0999C35.9001 78.3999 36.4 79.6999 37.3 80.5999ZM57.7001 80.5999L59.1 81.9999L59.2001 82.0999C59.2001 82.1999 59.2001 82.1999 59.2001 82.2999L59.1 82.3999C59.1 82.3999 59 82.3999 58.9001 82.3999H48.1C46.8 82.3999 45.5 81.8999 44.6 80.8999C43.7 79.9999 43.1 78.6999 43.1 77.3999V61.6999C43.1 61.5999 43.1 61.5999 43 61.4999C42.9 61.3999 42.9 61.3999 42.8 61.3999H40.5C40.4 61.3999 40.4001 61.3999 40.4001 61.3999L40.3 61.2999C40.3 61.2999 40.3 61.1999 40.3 61.0999C40.3 60.9999 40.3001 60.9999 40.4001 60.9999L49.6 51.7999C49.6 51.7999 49.7001 51.7999 49.7001 51.6999H49.8H49.9001C49.9001 51.6999 50 51.6999 50 51.7999L59.2001 60.9999L59.3 61.0999C59.3 61.1999 59.3 61.1999 59.3 61.2999L59.2001 61.3999C59.2001 61.3999 59.1 61.3999 59 61.3999H56.6C56.5 61.3999 56.5 61.3999 56.4001 61.4999C56.3001 61.5999 56.3 61.5999 56.3 61.6999V77.0999C56.3 78.3999 56.8 79.6999 57.7001 80.5999ZM78.1 80.5999L79.5 81.9999L79.6 82.0999C79.6 82.1999 79.6 82.1999 79.6 82.2999L79.5 82.3999H79.4001H68.4001C67.1001 82.3999 65.8001 81.8999 64.9001 80.8999C64 79.9999 63.4001 78.6999 63.4001 77.3999V66.9999C63.4001 66.8999 63.4 66.8999 63.3 66.7999C63.2001 66.6999 63.2 66.6999 63.1 66.6999H60.8C60.7001 66.6999 60.7 66.6999 60.6 66.6999L60.5 66.5999C60.5 66.5999 60.5 66.4999 60.5 66.3999C60.5 66.2999 60.5 66.2999 60.6 66.2999L69.8001 57.0999C69.8001 57.0999 69.9001 57.0999 69.9001 56.9999C69.9001 56.8999 70 56.9999 70 56.9999H70.1C70.1 56.9999 70.2 56.9999 70.2 57.0999L79.4001 66.2999L79.5 66.3999C79.5 66.4999 79.5 66.4999 79.5 66.5999C79.5 66.6999 79.4001 66.6999 79.4001 66.6999C79.4001 66.6999 79.3 66.6999 79.2 66.6999H76.8001C76.7001 66.6999 76.7 66.6999 76.6 66.7999C76.5 66.8999 76.5 66.8999 76.5 66.9999V77.0999C76.6 78.3999 77.1 79.6999 78.1 80.5999Z" fill="white"/>
</g>
<defs>
<clipPath id="clip0_790_7723">
<rect width="100" height="100" fill="white"/>
</clipPath>
</defs>
</svg>
