<svg xmlns="http://www.w3.org/2000/svg" width="100" height="100" viewBox="0 0 100 100" fill="none">
  <g id="php">
    <g id="php_2">
      <path id="Vector" fill-rule="evenodd" clip-rule="evenodd" d="M50 75.6778C77.6143 75.6778 100 64.3329 100 50.3391C100 36.3454 77.6143 25.0005 50 25.0005C22.3863 25.0005 0 36.3454 0 50.3391C0 64.3329 22.3863 75.6778 50 75.6778Z" fill="white"/>
      <path id="Vector_2" fill-rule="evenodd" clip-rule="evenodd" d="M60.1331 58.5289L62.6133 45.7644C63.1731 42.8834 62.7076 40.7346 61.2305 39.3767C59.7994 38.0629 57.3701 37.4238 53.8041 37.4238H49.5089L50.7375 31.0996C50.7605 30.9819 50.7572 30.8605 50.7278 30.7442C50.6984 30.628 50.6436 30.5197 50.5673 30.4271C50.4911 30.3345 50.3953 30.2599 50.2869 30.2087C50.1784 30.1575 50.06 30.131 49.94 30.131H44.0118C43.6225 30.131 43.2881 30.4073 43.2137 30.7894L40.5795 44.3405C40.34 42.8157 39.7499 41.5049 38.8055 40.4233C37.0667 38.4329 34.3163 37.4238 30.63 37.4238H19.14C18.7506 37.4238 18.4163 37.7001 18.3419 38.0816L13.0111 65.5116C12.9645 65.7504 13.0268 65.9959 13.1816 66.1833C13.3357 66.3713 13.5655 66.4795 13.8092 66.4795H19.7839C20.1733 66.4795 20.5076 66.2032 20.582 65.8205L21.8716 59.1861H26.3191C28.6529 59.1861 30.6143 58.9334 32.1452 58.4352C33.7105 57.9261 35.1513 57.0627 36.421 55.8741C37.447 54.9315 38.2946 53.8758 38.947 52.7374L37.8823 58.2175C37.8357 58.4564 37.898 58.703 38.0528 58.8893C38.207 59.0773 38.4373 59.1855 38.6804 59.1855H44.6086C44.9979 59.1855 45.3323 58.9092 45.4067 58.5277L48.3324 43.4711H52.4002C54.1336 43.4711 54.6415 43.8163 54.7799 43.9645C54.9051 44.0999 55.1651 44.5769 54.873 46.0806L52.5151 58.2169C52.4925 58.3346 52.4961 58.4558 52.5257 58.5719C52.5554 58.688 52.6103 58.7961 52.6865 58.8886C52.7627 58.981 52.8584 59.0555 52.9667 59.1068C53.075 59.158 53.1933 59.1847 53.3131 59.1849H59.3357C59.5241 59.1853 59.7068 59.12 59.8523 59.0003C59.9979 58.8806 60.0972 58.7139 60.1331 58.5289ZM32.6488 47.9821C32.2764 49.8957 31.575 51.2603 30.5629 52.0384C29.5351 52.8311 27.8911 53.2325 25.6764 53.2325H23.0282L24.943 43.3786H28.3669C30.8821 43.3786 31.8954 43.9161 32.3024 44.3665C32.8665 44.9917 32.9862 46.2426 32.6488 47.9821ZM85.1041 40.4233C83.3659 38.4329 80.6155 37.4238 76.9292 37.4238H65.4392C65.0492 37.4238 64.7155 37.7001 64.6411 38.0816L59.3109 65.5116C59.2637 65.7504 59.326 65.9959 59.4808 66.1833C59.6355 66.3707 59.8659 66.4795 60.1077 66.4795H66.0831C66.4731 66.4795 66.8068 66.2032 66.8812 65.8205L68.1708 59.1861H72.6189C74.9533 59.1861 76.9129 58.9334 78.4444 58.4352C80.0103 57.9261 81.4511 57.0627 82.7201 55.8741C83.7794 54.9013 84.6507 53.8075 85.3109 52.6267C85.9711 51.4459 86.4445 50.1291 86.7209 48.7119C87.3998 45.2166 86.8563 42.4281 85.1041 40.4233ZM79.2872 47.9821C78.9141 49.8957 78.2128 51.2603 77.2019 52.0384C76.1734 52.8311 74.5295 53.2325 72.3154 53.2325H69.6666L71.5808 43.3786H75.0053C77.5205 43.3786 78.5338 43.9161 78.9413 44.3665C79.5042 44.9917 79.6245 46.2426 79.2872 47.9821Z" fill="#030712"/>
      </g>
    </g>
</svg>