<svg width="100" height="100" viewBox="0 0 100 100" fill="none" xmlns="http://www.w3.org/2000/svg">
<g id="redis" clip-path="url(#clip0_790_10453)">
<path id="Vector" d="M96.1 72.7999C90.8 75.5999 63.1 86.8999 57.2 89.9999C51.3 93.0999 48 92.9999 43.4 90.7999C38.8 88.5999 9.3 76.6999 4 74.1999C1.4 72.8999 0 71.8999 0 70.8999V60.6999C0 60.6999 38.3 52.3999 44.5 50.0999C50.7 47.8999 52.8 47.7999 58.1 49.6999C63.4 51.5999 94.8 57.2999 100 59.1999V69.1999C100 70.2999 98.8 71.3999 96.1 72.7999Z" fill="#464646"/>
<path id="Vector_2" d="M96.1 62.6999C90.8 65.4999 63.1 76.7999 57.2 79.8999C51.3 82.9999 48 82.8999 43.4 80.6999C38.8 78.4999 9.29997 66.5999 3.99997 64.0999C-1.30003 61.5999 -1.40003 59.7999 3.79997 57.7999C8.99997 55.7999 38.3 44.2999 44.4 42.0999C50.6 39.8999 52.7 39.7999 58 41.6999C63.3 43.5999 90.7 54.5999 95.9 56.4999C101.2 58.3999 101.4 59.8999 96.1 62.6999Z" fill="white"/>
<path id="Vector_3" d="M96.1 56.4001C90.8 59.2001 63.1 70.5001 57.2 73.6001C51.3 76.7001 48 76.6001 43.4 74.4001C38.8 72.2001 9.3 60.3001 4 57.8001C1.4 56.5001 0 55.5001 0 54.5001V44.4001C0 44.4001 38.3 36.1001 44.5 33.8001C50.7 31.6001 52.8 31.5001 58.1 33.4001C63.4 35.3001 94.8 41.0001 100 42.9001V52.9001C100 53.9001 98.8 55.0001 96.1 56.4001Z" fill="#464646"/>
<path id="Vector_4" d="M96.1 46.4001C90.8 49.2001 63.1 60.5001 57.2 63.6001C51.3 66.7001 48 66.6001 43.4 64.4001C38.8 62.2001 9.29997 50.3001 3.99997 47.8001C-1.30003 45.3001 -1.40003 43.5001 3.79997 41.5001C8.99997 39.5001 38.3 28.0001 44.4 25.8001C50.6 23.6001 52.7 23.5001 58 25.4001C63.3 27.3001 90.7 38.3001 95.9 40.2001C101.2 42.0001 101.4 43.6001 96.1 46.4001Z" fill="white"/>
<path id="Vector_5" d="M96.1 39.4001C90.8 42.2001 63.1 53.5001 57.2 56.6001C51.3 59.7001 48 59.6001 43.4 57.4001C38.8 55.3001 9.3 43.4001 4 40.8001C1.4 39.5001 0 38.5001 0 37.5001V27.4001C0 27.4001 38.3 19.1001 44.5 16.8001C50.7 14.6001 52.8 14.5001 58.1 16.4001C63.4 18.3001 94.8 24.0001 100 25.9001V35.9001C100 36.9001 98.8 38.0001 96.1 39.4001Z" fill="#464646"/>
<path id="Vector_6" d="M96.1 29.4C90.8 32.2 63.1 43.5 57.2 46.6C51.3 49.7 48 49.6 43.4 47.4C38.8 45.2 9.29997 33.3 3.99997 30.8C-1.30003 28.3 -1.40003 26.5 3.79997 24.5C8.99997 22.4 38.3 11 44.5 8.70001C50.7 6.50001 52.8 6.40001 58.1 8.30001C63.4 10.2 90.8 21.2 96 23.1C101.2 25 101.4 26.6 96.1 29.4Z" fill="white"/>
<path id="Vector_7" d="M62.2 19.6L53.6 20.5L51.7 25.1L48.6 19.9L38.7 19L46.1 16.3L43.9 12.2L50.8 14.9L57.3 12.8L55.5 17L62.2 19.6ZM51.2 42L35.2 35.2999L58.2 31.7999L51.2 42ZM28.9 22.1C35.7 22.1 41.2 24.2 41.2 26.9C41.2 29.5 35.7 31.7 28.9 31.7C22.1 31.7 16.6 29.6 16.6 26.9C16.6 24.3 22.2 22.1 28.9 22.1Z" fill="white"/>
<path id="Vector_8" d="M72.4 20.8L86 26.2001L72.4 31.6V20.8Z" fill="#303030"/>
<path id="Vector_9" d="M57.3 26.8L72.4001 20.8V31.5L70.9001 32.1L57.3 26.8Z" fill="#4B4B4B"/>
</g>
<defs>
<clipPath id="clip0_790_10453">
<rect width="100" height="100" fill="white"/>
</clipPath>
</defs>
</svg>
