<svg width="100" height="100" viewBox="0 0 100 100" fill="none" xmlns="http://www.w3.org/2000/svg">
<g id="tailwindcss">
<path id="Vector" d="M50 20C36.7 20 28.3 26.7 25 40C30 33.3 35.8 30.8 42.5 32.5C46.3 33.5 49 36.2 52 39.3C56.9 44.3 62.6 50 75 50C88.3 50 96.7 43.3 100 30C95 36.7 89.2 39.2 82.5 37.5C78.7 36.5 76 33.8 73 30.7C68.1 25.8 62.4 20 50 20ZM25 50C11.7 50 3.3 56.7 0 70C5 63.3 10.8 60.8 17.5 62.5C21.3 63.5 24 66.2 27 69.3C31.9 74.3 37.6 80 50 80C63.3 80 71.7 73.3 75 60C70 66.7 64.2 69.2 57.5 67.5C53.7 66.6 51 63.8 48 60.7C43.1 55.8 37.4 50 25 50Z" fill="#fff"/>
</g>
</svg>
