<svg width="100" height="100" viewBox="0 0 100 100" fill="none" xmlns="http://www.w3.org/2000/svg">
  <path fill-rule="evenodd" clip-rule="evenodd" d="M40.4917 29.5367C44.4446 29.2221 48.519 29.0832 52.7148 29.1199C53.5094 29.1269 54.1592 28.4883 54.1662 27.6937C54.1691 27.359 54.0553 27.0338 53.8443 26.774C44.2944 15.0156 36.4307 9.13635 30.2534 9.13635C23.876 9.13635 22.0566 16.1662 24.7953 30.226C24.9454 30.9966 25.6856 31.5046 26.4587 31.3676C31.3344 30.5035 36.0121 29.8932 40.4917 29.5367Z" fill="white"/>
  <path fill-rule="evenodd" clip-rule="evenodd" d="M62.6818 31.472C64.9646 34.7616 67.1556 38.2451 69.2547 41.9228C69.6487 42.613 70.5275 42.8531 71.2176 42.4592C71.507 42.294 71.7301 42.0335 71.8488 41.7222C77.2509 27.5528 78.3862 17.781 75.2548 12.4068C72.0234 6.86104 64.9825 8.77863 54.1322 18.1596C53.5356 18.6754 53.4654 19.5753 53.9747 20.1773C57.1985 23.9881 60.1009 27.753 62.6818 31.472Z" fill="white"/>
  <path fill-rule="evenodd" clip-rule="evenodd" d="M72.2631 51.2672C70.5546 54.8581 68.6342 58.467 66.5019 62.094C66.0992 62.7791 66.3281 63.6609 67.0131 64.0636C67.3031 64.2341 67.6438 64.2976 67.9757 64.243C82.8629 61.7953 91.8526 57.8885 94.9449 52.5227C98.1386 46.9809 93.0027 41.9015 79.5372 37.2846C78.7954 37.0303 77.9866 37.4168 77.7184 38.1537C76.0193 42.8236 74.2008 47.1948 72.2631 51.2672Z" fill="white"/>
  <path fill-rule="evenodd" clip-rule="evenodd" d="M60.0479 69.8511C56.0949 70.1657 52.0206 70.3047 47.8248 70.2679C47.0301 70.2609 46.3803 70.8995 46.3734 71.6941C46.3704 72.0288 46.4843 72.354 46.6953 72.6138C56.2452 84.3722 64.1088 90.2515 70.2861 90.2515C76.6636 90.2515 78.4829 83.2216 75.7443 69.1619C75.5941 68.3912 74.854 67.8832 74.0809 68.0202C69.2053 68.8843 64.5275 69.4946 60.0479 69.8511Z" fill="white"/>
  <path fill-rule="evenodd" clip-rule="evenodd" d="M38.8574 68.5915C36.5747 65.3018 34.3836 61.8183 32.2845 58.1406C31.8905 57.4504 31.0117 57.2103 30.3216 57.6043C30.0321 57.7695 29.809 58.0301 29.6903 58.3413C24.2882 72.5107 23.1529 82.2826 26.2843 87.6568C29.5158 93.2025 36.5567 91.2849 47.407 81.9039C48.0036 81.3881 48.0738 80.4882 47.5645 79.8862C44.3407 76.0754 41.4384 72.3105 38.8574 68.5915Z" fill="white"/>
  <path fill-rule="evenodd" clip-rule="evenodd" d="M27.2763 49.7964C28.9848 46.2056 30.9051 42.5966 33.0374 38.9695C33.4401 38.2844 33.2113 37.4026 32.5263 37C32.2362 36.8295 31.8955 36.766 31.5636 36.8206C16.6764 39.2683 7.6867 43.175 4.59434 48.5408C1.40064 54.0826 6.5366 59.162 20.0021 63.7789C20.7439 64.0332 21.5527 63.6467 21.8209 62.9098C23.5199 58.2398 25.3385 53.8687 27.2763 49.7964Z" fill="white"/>
  <path fill-rule="evenodd" clip-rule="evenodd" d="M39.4877 35.2185C40.0656 34.2151 41.1353 33.5967 42.2932 33.5967H56.9874C58.1452 33.5967 59.2149 34.2151 59.7928 35.2185L61.8352 38.7647H37.4453L39.4877 35.2185ZM35.4575 42.2163L32.1942 47.8829H67.0863L63.823 42.2163H35.4575ZM32.1996 51.3343L35.5816 57.207H63.6987L67.0809 51.3343H32.1996ZM37.5694 60.6586L39.4877 63.9894C40.0656 64.9928 41.1353 65.6111 42.2932 65.6111H56.9874C58.1452 65.6111 59.2149 64.9928 59.7928 63.9894L61.7109 60.6586H37.5694Z" fill="white"/>
</svg>
