<svg width="100" height="100" viewBox="0 0 100 100" fill="none" xmlns="http://www.w3.org/2000/svg">
<g id="typescript" clip-path="url(#clip0_790_10643)">
<path id="Vector" d="M0 0H100V100H0V0Z" fill="white"/>
<path id="Vector_2" d="M48 37.0001H52.8V45.3001H39.8V82.1001L39.5 82.2001C39 82.3001 32.9 82.3001 31.5 82.2001L30.4 82.1001V45.3001H17.4V37.0001H21.5C23.7 37.0001 29.5 37.0001 34.3 37.0001C39.3 37.0001 45.4 37.0001 48 37.0001ZM84.6 78.3001C82.7 80.3001 80.6 81.4001 77.2 82.4001C75.7 82.8001 75.5 82.8001 72.1 82.8001C68.8 82.8001 68.5 82.8001 66.9 82.4001C62.7 81.3001 59.3 79.2001 57 76.2001C56.3 75.4001 55.3 73.6001 55.3 73.4001C55.3 73.3001 55.5 73.2001 55.7 73.1001C55.9 73.0001 56.3 72.7001 56.7 72.5001C57 72.3001 57.7 71.9001 58.1 71.7001C58.5 71.5001 59.7 70.8001 60.8 70.1001C61.9 69.5001 62.8 68.9001 62.9 68.9001C63 68.9001 63.2 69.1001 63.4 69.4001C64.3 71.0001 66.5 73.0001 68.1 73.7001C69.1 74.1001 71.2 74.6001 72.2 74.6001C73.1 74.6001 74.9 74.2001 75.8 73.8001C76.8 73.3001 77.3 72.9001 77.9 72.0001C78.3 71.4001 78.4 71.2001 78.3 70.0001C78.3 68.9001 78.2 68.6001 77.9 68.0001C77 66.6001 75.8 65.8001 71 63.7001C66 61.5001 63.8 60.2001 62 58.4001C60.7 57.1001 60.4 56.7001 59.5 55.1001C58.4 53.0001 58.3 52.3001 58.3 49.2001C58.3 47.0001 58.3 46.3001 58.6 45.5001C58.9 44.4001 60 42.2001 60.5 41.7001C61.5 40.5001 61.9 40.2001 62.6 39.6001C64.7 37.8001 68 36.7001 71.2 36.6001C71.6 36.6001 72.7 36.7001 73.9 36.7001C77.1 37.0001 79.3 37.7001 81.4 39.4001C83 40.6001 85.4 43.6001 85.1 44.0001C84.9 44.2001 78.7 48.4001 78.3 48.5001C78.1 48.6001 77.9 48.5001 77.5 48.1001C75.4 45.6001 74.5 45.0001 72.5 44.9001C71 44.8001 70.3 45.0001 69.3 45.6001C68.3 46.3001 67.8 47.3001 67.8 48.8001C67.8 50.9001 68.6 51.9001 71.6 53.4001C73.5 54.4001 75.2 55.1001 75.3 55.1001C75.5 55.1001 79.5 57.1001 80.5 57.7001C85.4 60.6001 87.4 63.5001 87.9 68.6001C88 72.3001 87 75.8001 84.6 78.3001Z" fill="#030712"/>
</g>
<defs>
<clipPath id="clip0_790_10643">
<rect width="100" height="100" fill="#030712"/>
</clipPath>
</defs>
</svg>
