<svg width="100" height="100" viewBox="0 0 100 100" fill="none" xmlns="http://www.w3.org/2000/svg">
<g id="zod">
<path id="Vector" d="M93.2 31.5L77.4 15H23.2999L6.69995 31.5L48.4 81.7L93.2 31.5Z" fill="#fff"/>
<path id="Vector_2" fill-rule="evenodd" clip-rule="evenodd" d="M56.1 12.8L53.2 14.5L52.5 13.3L50.8 14.3L50 12.8L47.4 14.3L46.5 12.8L46.2 13L45.3 11.4L44.9 11.7L44 10.2L5.5 32.5L6.7 34.5999L7.1 34.2999L8 35.7999L8.3 35.5999L9.2 37.2L9.6 37L10.2 38L10.3 37.9L10.9 38.9L12.1 41L57.4 15L56.1 12.8ZM72.5 56.5H55.7V58.2H34.4L88.7 26.7999L82.7 16.3L81.5 17L80.7 15.6L67 23.4L67.8 24.8L22.6 51L28.6 61.5L28.8 61.4V64.5999H33.2V69.9H64.6V64.5999H69.3V58.2999H72.3V56.5H72.5Z" fill="#030712"/>
<path id="Vector_3" fill-rule="evenodd" clip-rule="evenodd" d="M79.5 10H21.3L0 31.2L48.3 89.4L52.2 85.1L100 31.4L79.5 10ZM77.4 15L93.2 31.5L48.5 81.7L6.7 31.5L23.3 15H77.4Z" fill="#fff"/>
</g>
</svg>
