<svg width="100" height="100" viewBox="0 0 100 100" fill="none" xmlns="http://www.w3.org/2000/svg">
<g id="figma">
<path id="Vector" d="M33.3001 100C42.5001 100 50.0001 92.5002 50.0001 83.3002V66.7002H33.3001C24.1001 66.7002 16.6001 74.2002 16.6001 83.4002C16.6001 92.6002 24.1001 100 33.3001 100Z" fill="#8C8C8C"/>
<path id="Vector_2" d="M16.7 49.9998C16.7 40.7998 24.2 33.2998 33.4 33.2998H50V66.5998H33.2999C24.0999 66.6998 16.7 59.1998 16.7 49.9998Z" fill="#818181"/>
<path id="Vector_3" d="M16.7 16.7C16.7 7.5 24.0999 0 33.2999 0H50V33.3H33.2999C24.0999 33.3 16.7 25.9 16.7 16.7Z" fill="#7A7A7A"/>
<path id="Vector_4" d="M50 0H66.7C75.9 0 83.4 7.5 83.4 16.7C83.4 25.9 75.9 33.4 66.7 33.4H50V0Z" fill="#9B9B9B"/>
<path id="Vector_5" d="M83.3 49.9998C83.3 59.1998 75.8 66.6998 66.6 66.6998C57.4 66.6998 50 59.1998 50 49.9998C50 40.7998 57.5 33.2998 66.7 33.2998C75.9 33.2998 83.3 40.7998 83.3 49.9998Z" fill="#939393"/>
</g>
</svg>
