<svg width="100" height="100" viewBox="0 0 100 100" fill="none" xmlns="http://www.w3.org/2000/svg">
<g id="firebase">
<path id="Vector" d="M61.4 36.0998L51.4 45.3998L42.1 26.6998L46.9 15.8998C48.1 13.7998 50.1 13.6998 51.3 15.8998L61.4 36.0998Z" fill="#ABABAB"/>
<path id="Vector_2" d="M51.4 45.4002L14 80.2002L42.1 26.7002L51.4 45.4002Z" fill="#979797"/>
<path id="Vector_3" d="M72.4 21.8999C74.2 20.1999 76 20.7999 76.5 23.1999L86.2 79.7999L53.9 99.0999C52.8 99.6999 49.8 99.9999 49.8 99.9999C49.8 99.9999 47.1 99.6999 46 99.0999L14 80.1999L72.4 21.8999Z" fill="#C8C8C8"/>
<path id="Vector_4" d="M42.1 26.7002L14 80.2002L26.5 2.00022C27 -0.399782 28.3 -0.699782 29.6 1.50022L42.1 26.7002Z" fill="#ABABAB"/>
</g>
</svg>
