<svg width="100" height="100" viewBox="0 0 100 100" fill="none" xmlns="http://www.w3.org/2000/svg">
<g id="netlify2">
<path id="Vector" d="M62.9 64.3H56L55.4 63.7V47.7C55.4 44.8 54.3 42.5999 50.8 42.5999C49 42.5999 47 42.6 44.8 42.7L44.5 43V49.5V63.7999L44 64.3H37.1L36.5 63.7V36.2999L37.1 35.7H52.5C58.5 35.7 63.4 40.5999 63.4 46.5999V63.7L62.9 64.3Z" fill="#333333"/>
<path id="Vector_2" d="M27 79.5H26.1L21.4 74.8V73.9L28.6 66.7H33.6L34.3 67.4V72.4L27 79.5Z" fill="#858585"/>
<path id="Vector_3" d="M21.4 26.2001V25.3001L26.1 20.6001H27L34.2 27.8001V32.8001L33.5 33.5001H28.5L21.4 26.2001Z" fill="#858585"/>
<path id="Vector_4" d="M28 54H0.6L0 53.4V46.5L0.6 46H28L28.6 46.6V53.5L28 54Z" fill="#858585"/>
<path id="Vector_5" d="M99.4 54H72L71.4 53.4V46.5L72 46H99.4L100 46.6V53.5L99.4 54Z" fill="#858585"/>
<path id="Vector_6" d="M46 27.1V6.6L46.6 6H53.5L54.1 6.6V27.2L53.5 27.8H46.6L46 27.1Z" fill="#858585"/>
<path id="Vector_7" d="M46 93.4V72.8L46.6 72.2H53.5L54.1 72.8V93.4L53.5 94H46.6L46 93.4Z" fill="#858585"/>
</g>
</svg>
