<svg width="100" height="100" viewBox="0 0 100 100" fill="none" xmlns="http://www.w3.org/2000/svg">
<g id="nextjs2" clip-path="url(#clip0_790_10145)">
<path id="Vector" d="M50 100C77.6 100 100 77.6 100 50C100 22.4 77.6 0 50 0C22.4 0 0 22.4 0 50C0 77.6 22.4 100 50 100Z" fill="#929292"/>
<path id="Vector_2" d="M83.1 87.5L38.4 30H30V70H36.7V38.5L77.7 91.5C79.6 90.3 81.4 89 83.1 87.5Z" fill="url(#paint0_linear_790_10145)"/>
<path id="Vector_3" d="M70.5999 30H63.8999V70H70.5999V30Z" fill="url(#paint1_linear_790_10145)"/>
</g>
<defs>
<linearGradient id="paint0_linear_790_10145" x1="51.7943" y1="71.7906" x2="71.5166" y2="96.235" gradientUnits="userSpaceOnUse">
<stop stop-color="#3D3D3D"/>
<stop offset="1" stop-color="#3D3D3D" stop-opacity="0"/>
</linearGradient>
<linearGradient id="paint1_linear_790_10145" x1="67.2984" y1="29.9872" x2="67.1868" y2="59.3624" gradientUnits="userSpaceOnUse">
<stop stop-color="#3D3D3D"/>
<stop offset="1" stop-color="#3D3D3D" stop-opacity="0"/>
</linearGradient>
<clipPath id="clip0_790_10145">
<rect width="100" height="100" fill="white"/>
</clipPath>
</defs>
</svg>
