<svg width="100" height="100" viewBox="0 0 100 100" fill="none" xmlns="http://www.w3.org/2000/svg">
<g id="render" clip-path="url(#clip0_790_10473)">
<path id="Vector" d="M75.9 9.243e-05C62.9 -0.599908 52 8.80009 50.1 21.2001C50 21.8001 49.9 22.3001 49.8 22.9001C46.9 38.3001 33.4 50.0001 17.2 50.0001C11.4 50.0001 6 48.5001 1.3 45.9001C0.7 45.6001 0 46.0001 0 46.7001V50.0001V100H49.8V62.5001C49.8 55.6001 55.4 50.0001 62.2 50.0001H74.6C88.7 50.0001 100 38.3001 99.5 24.0001C99.1 11.1001 88.7 0.600092 75.9 9.243e-05Z" fill="#929292"/>
</g>
<defs>
<clipPath id="clip0_790_10473">
<rect width="100" height="100" fill="white"/>
</clipPath>
</defs>
</svg>
