<svg width="100" height="100" viewBox="0 0 100 100" fill="none" xmlns="http://www.w3.org/2000/svg">
<g id="reactquery" clip-path="url(#clip0_790_10437)">
<path id="Vector" fill-rule="evenodd" clip-rule="evenodd" d="M61.7 60.7001L59.8 64.0001C59.2 65.0001 58.2 65.6001 57 65.6001H42.3C41.1 65.6001 40.1 65.0001 39.5 64.0001L37.6 60.7001H61.7ZM67.1 51.3001L63.7 57.2001H35.6L32.2 51.3001H67.1ZM63.8 42.2001L67.1 47.9001H32.2L35.5 42.2001H63.8ZM57 33.6001C58.2 33.6001 59.2 34.2001 59.8 35.2001L61.8 38.7001H37.4L39.4 35.2001C40 34.2001 41 33.6001 42.2 33.6001H57Z" fill="#323232"/>
<path id="Vector_2" d="M20.9 32.0999C19.3 24.1999 18.9 18.1999 20 13.7999C20.6 11.1999 21.8 9.09994 23.5 7.49994C25.3 5.79994 27.7 4.99994 30.3 4.99994C34.6 4.99994 39.1 6.99994 44 10.6999C46 12.1999 48 14.0999 50.1 16.1999C50.3 15.9999 50.5 15.7999 50.7 15.5999C56.7 10.1999 61.8 6.89994 66.1 5.59994C68.7 4.79994 71.1 4.79994 73.3 5.49994C75.6 6.29994 77.5 7.89994 78.8 10.1999C81 13.8999 81.5 18.7999 80.7 24.8999C80.3 27.2999 79.7 29.9999 79 32.9999C79.3 32.9999 79.6 33.0999 79.9 33.1999C87.5 35.6999 92.9 38.3999 96.2 41.5999C98.1 43.3999 99.4 45.4999 99.9 47.7999C100.4 50.1999 99.9 52.5999 98.6 54.8999C96.4 58.5999 92.5 61.5999 86.9 63.8999C84.6 64.7999 82.1 65.6999 79.2 66.3999C79.3 66.6999 79.4 66.9999 79.5 67.2999C81.1 75.1999 81.5 81.1999 80.4 85.5999C79.8 88.1999 78.6 90.2999 76.9 91.8999C75.1 93.4999 72.7 94.2999 70.1 94.2999C65.8 94.2999 61.3 92.2999 56.4 88.5999C54.4 87.0999 52.3 85.1999 50.2 82.9999C50 83.2999 49.7 83.6999 49.4 83.9999C43.4 89.3999 38.3 92.6999 34 93.9999C31.4 94.7999 29 94.7999 26.8 94.0999C24.5 93.2999 22.6 91.6999 21.3 89.3999C19.1 85.6999 18.6 80.7999 19.4 74.6999C19.7 72.0999 20.3 69.2999 21.2 66.2999C20.9 66.2999 20.5 66.1999 20.2 66.0999C12.6 63.5999 7.20003 60.8999 3.90003 57.6999C2.00003 55.8999 0.700026 53.7999 0.200026 51.4999C-0.299974 49.0999 0.200026 46.6999 1.50003 44.3999C3.70003 40.6999 7.60003 37.6999 13.2 35.3999C15.5 34.3999 18.2 33.5999 21.1 32.7999C21 32.5999 21 32.2999 20.9 32.0999Z" fill="#202020"/>
<path id="Vector_3" fill-rule="evenodd" clip-rule="evenodd" d="M40.5 29.5001C44.5 29.2001 48.5 29.0001 52.7 29.1001C53.5 29.1001 54.1 28.5001 54.2 27.7001C54.2 27.4001 54.1 27.0001 53.9 26.8001C44.3 15.0001 36.4 9.1001 30.3 9.1001C23.9 9.1001 22.1 16.1001 24.8 30.2001C25 31.0001 25.7 31.5001 26.5 31.3001C31.3 30.5001 36 29.9001 40.5 29.5001Z" fill="#7C7C7C"/>
<path id="Vector_4" fill-rule="evenodd" clip-rule="evenodd" d="M62.7 31.5C65 34.8 67.2 38.3 69.3 42C69.7 42.7 70.6 42.9 71.3 42.5C71.6 42.3 71.8 42.1 71.9 41.8C77.3 27.6 78.4 17.9 75.3 12.5C72 6.90001 65 8.80001 54.1 18.2C53.5 18.7 53.4 19.6 53.9 20.2C57.2 24 60.1 27.8 62.7 31.5Z" fill="#7C7C7C"/>
<path id="Vector_5" fill-rule="evenodd" clip-rule="evenodd" d="M72.3 51.3C70.6 54.9 68.7 58.5 66.5 62.1C66.1 62.8 66.3 63.7 67 64.1C67.3 64.3 67.6 64.3 68 64.3C82.9 61.9 91.9 57.9 95 52.6C98.1 47 93 41.9 79.5 37.3C78.8 37 77.9 37.4 77.7 38.2C76 42.8 74.2 47.2 72.3 51.3Z" fill="#7C7C7C"/>
<path id="Vector_6" fill-rule="evenodd" clip-rule="evenodd" d="M60 69.8999C56 70.1999 52 70.3999 47.8 70.2999C47 70.2999 46.4 70.8999 46.3 71.6999C46.3 71.9999 46.4 72.3999 46.6 72.5999C56.1 84.3999 64 90.1999 70.2 90.1999C76.6 90.1999 78.4 83.1999 75.7 69.0999C75.5 68.2999 74.8 67.7999 74 67.9999C69.2 68.8999 64.5 69.4999 60 69.8999Z" fill="#7C7C7C"/>
<path id="Vector_7" fill-rule="evenodd" clip-rule="evenodd" d="M37.3 68.1001C35 64.8001 32.8 61.3001 30.7 57.6001C30.3 56.9001 29.4 56.7001 28.7 57.1001C28.4 57.3001 28.2 57.5001 28.1 57.8001C22.7 72.0001 21.6 81.7001 24.7 87.1001C27.9 92.6001 35 90.7001 45.8 81.3001C46.4 80.8001 46.5 79.9001 46 79.3001C42.8 75.6001 39.9 71.8001 37.3 68.1001Z" fill="#7C7C7C"/>
<path id="Vector_8" fill-rule="evenodd" clip-rule="evenodd" d="M27.7 47.8C29.4 44.2 31.3 40.6 33.5 37C33.9 36.3 33.7 35.4 33 35C32.7 34.8 32.4 34.8 32 34.8C17.1 37.2 8.09999 41.2 4.99999 46.5C1.89999 52 6.99999 57.1 20.5 61.7001C21.2 62 22.1 61.6 22.3 60.8C24 56.2 25.8 51.8 27.7 47.8Z" fill="#7C7C7C"/>
<path id="Vector_9" fill-rule="evenodd" clip-rule="evenodd" d="M43.5 33.8H55.8C57.6 33.8 59.3 34.8 60.2 36.3L66.4 47.1C67.3 48.7 67.3 50.6 66.4 52.1L60.2 62.9001C59.3 64.5001 57.6 65.4001 55.8 65.4001H43.5C41.7 65.4001 40 64.4001 39.1 62.9001L32.9 52.1C32 50.5 32 48.6 32.9 47.1L39.1 36.3C40 34.7 41.7 33.8 43.5 33.8ZM53.9 37C55.7 37 57.4 38 58.3 39.5L62.6 47C63.5 48.6 63.5 50.5 62.6 52L58.3 59.5C57.4 61.1 55.7 62 53.9 62H45.3C43.5 62 41.8 61 40.9 59.5L36.6 52C35.7 50.4 35.7 48.5 36.6 47L40.9 39.5C41.8 37.9 43.5 37 45.3 37H53.9ZM51.9 40.6H47.4C45.6 40.6 43.9 41.6 43 43.1L40.7 47.1C39.8 48.7 39.8 50.6 40.7 52.1L43 56.1C43.9 57.7 45.6 58.6 47.4 58.6H51.9C53.7 58.6 55.4 57.6 56.3 56.1L58.6 52.1C59.5 50.5 59.5 48.6 58.6 47.1L56.3 43.1C55.4 41.6 53.7 40.6 51.9 40.6ZM50 44C51.8 44 53.5 45 54.4 46.5L54.7 47.1C55.6 48.7 55.6 50.6 54.7 52.1L54.4 52.7001C53.5 54.3001 51.8 55.2001 50 55.2001H49.4C47.6 55.2001 45.9 54.2001 45 52.7001L44.7 52.1C43.8 50.5 43.8 48.6 44.7 47.1L45 46.5C45.9 44.9 47.6 44 49.4 44H50ZM49.6 47.4001C48.8 47.4001 48.1 47.8 47.7 48.5C47.3 49.2 47.3 50 47.7 50.7001C48.1 51.4001 48.8 51.8 49.6 51.8C50.4 51.8 51.1 51.4001 51.5 50.7001C51.9 50 51.9 49.2 51.5 48.5C51.2 47.8 50.4 47.4001 49.6 47.4001Z" fill="#D5D5D5"/>
</g>
<defs>
<clipPath id="clip0_790_10437">
<rect width="100" height="100" fill="white"/>
</clipPath>
</defs>
</svg>
