<svg width="101" height="100" viewBox="0 0 101 100" fill="none" xmlns="http://www.w3.org/2000/svg">
<g id="reactjs">
<path id="Vector" d="M50.3 58.7999C55.2 58.7999 59.1 54.9 59.1 50C59.1 45.1 55.2 41.2 50.3 41.2C45.4 41.2 41.5 45.1 41.5 50C41.5 54.9 45.4 58.7999 50.3 58.7999Z" fill="#3B82F6 "/>
<path id="Vector_2" d="M50.3 68.0999C76.4 68.0999 97.6 59.9999 97.6 49.9999C97.6 39.9999 76.4 31.8999 50.3 31.8999C24.2 31.8999 3 39.9999 3 49.9999C3 59.9999 24.2 68.0999 50.3 68.0999Z" stroke="#3B82F6 " stroke-width="5"/>
<path id="Vector_3" d="M34.7 59C47.7 81.7 65.3 96 74 91C82.6 86 79.1 63.6 66 41C52.9 18.3 35.3 4.00002 26.7 9.00002C18 14 21.6 36.4 34.7 59Z" stroke="#3B82F6 " stroke-width="5"/>
<path id="Vector_4" d="M34.7 41C21.6 63.6 18.1 86 26.7 91C35.3 96 52.9 81.7 65.9 59C79 36.4 82.6 14 74 9.00002C65.3 4.00002 47.7 18.3 34.7 41Z" stroke="#3B82F6 " stroke-width="5"/>
</g>
</svg>
